<svg width="126" height="32" viewBox="0 0 126 32" fill="none" xmlns="http://www.w3.org/2000/svg">
<path d="M117.718 0H7.28155C3.26006 0 0 2.68629 0 6V26C0 29.3137 3.26006 32 7.28155 32H117.718C121.74 32 125 29.3137 125 26V6C125 2.68629 121.74 0 117.718 0Z" fill="#1A1A1A"/>
<path d="M118.76 0.5H7.2402C3.51769 0.5 0.5 2.96243 0.5 6V26C0.5 29.0376 3.51769 31.5 7.2402 31.5H118.76C122.482 31.5 125.5 29.0376 125.5 26V6C125.5 2.96243 122.482 0.5 118.76 0.5Z" stroke="white" stroke-opacity="0.14"/>
<mask id="mask0_1811_40" style="mask-type:luminance" maskUnits="userSpaceOnUse" x="10" y="10" width="12" height="12">
<path d="M10 10H22V22H10V10Z" fill="white"/>
</mask>
<g mask="url(#mask0_1811_40)">
<path fill-rule="evenodd" clip-rule="evenodd" d="M16 10.75L22 21.25H10L16 10.75Z" fill="#EDEDED"/>
</g>
<path d="M31.5 1V31" stroke="white" stroke-opacity="0.14"/>
<path d="M44.1186 21V10.8182H45.6548V19.6776H50.2685V21H44.1186ZM51.9016 21V13.3636H53.3881V21H51.9016ZM52.6523 12.1854C52.3938 12.1854 52.1718 12.0992 51.9862 11.9268C51.8039 11.7512 51.7127 11.5424 51.7127 11.3004C51.7127 11.0552 51.8039 10.8464 51.9862 10.674C52.1718 10.4983 52.3938 10.4105 52.6523 10.4105C52.9109 10.4105 53.1313 10.4983 53.3136 10.674C53.4992 10.8464 53.592 11.0552 53.592 11.3004C53.592 11.5424 53.4992 11.7512 53.3136 11.9268C53.1313 12.0992 52.9109 12.1854 52.6523 12.1854ZM61.9206 13.3636L59.1515 21H57.5605L54.7864 13.3636H56.3823L58.3162 19.2401H58.3958L60.3248 13.3636H61.9206ZM66.3491 21.1541C65.5967 21.1541 64.9487 20.9934 64.4052 20.6719C63.8649 20.3471 63.4473 19.8913 63.1523 19.3047C62.8607 18.7147 62.7148 18.0237 62.7148 17.2315C62.7148 16.4493 62.8607 15.7599 63.1523 15.1634C63.4473 14.5668 63.8583 14.1011 64.3853 13.7663C64.9156 13.4316 65.5354 13.2642 66.2447 13.2642C66.6755 13.2642 67.0932 13.3355 67.4975 13.478C67.9019 13.6205 68.2648 13.8442 68.5863 14.1491C68.9078 14.4541 69.1613 14.8501 69.3469 15.3374C69.5326 15.8213 69.6254 16.4096 69.6254 17.1023V17.6293H63.555V16.5156H68.1687C68.1687 16.1245 68.0891 15.7782 67.93 15.4766C67.771 15.1716 67.5472 14.9313 67.2589 14.7557C66.9738 14.58 66.6391 14.4922 66.2546 14.4922C65.837 14.4922 65.4724 14.5949 65.1609 14.8004C64.8526 15.0026 64.614 15.2678 64.445 15.5959C64.2792 15.9207 64.1964 16.2737 64.1964 16.6548V17.5249C64.1964 18.0353 64.2859 18.4695 64.4648 18.8274C64.6471 19.1854 64.9007 19.4588 65.2255 19.6477C65.5503 19.8333 65.9298 19.9261 66.364 19.9261C66.6457 19.9261 66.9026 19.8864 67.1346 19.8068C67.3666 19.724 67.5671 19.6013 67.7362 19.4389C67.9052 19.2765 68.0344 19.076 68.1239 18.8374L69.5309 19.0909C69.4182 19.5052 69.216 19.8681 68.9244 20.1797C68.636 20.4879 68.2731 20.7282 67.8356 20.9006C67.4014 21.0696 66.9059 21.1541 66.3491 21.1541ZM78.3952 21H75.0991V10.8182H78.4996C79.4973 10.8182 80.354 11.022 81.07 11.4297C81.7859 11.834 82.3344 12.4157 82.7156 13.1747C83.1 13.9304 83.2923 14.8369 83.2923 15.8942C83.2923 16.9548 83.0984 17.8662 82.7106 18.6286C82.3261 19.3909 81.7693 19.9775 81.0401 20.3885C80.311 20.7962 79.4293 21 78.3952 21ZM76.6353 19.6577H78.3107C79.0863 19.6577 79.7309 19.5118 80.2447 19.2202C80.7584 18.9252 81.1429 18.4993 81.3981 17.9425C81.6533 17.3823 81.7809 16.6996 81.7809 15.8942C81.7809 15.0954 81.6533 14.4176 81.3981 13.8608C81.1462 13.304 80.77 12.8814 80.2695 12.593C79.7691 12.3047 79.1476 12.1605 78.4052 12.1605H76.6353V19.6577ZM88.3745 21.1541C87.6221 21.1541 86.9741 20.9934 86.4306 20.6719C85.8903 20.3471 85.4727 19.8913 85.1777 19.3047C84.8861 18.7147 84.7402 18.0237 84.7402 17.2315C84.7402 16.4493 84.8861 15.7599 85.1777 15.1634C85.4727 14.5668 85.8837 14.1011 86.4107 13.7663C86.941 13.4316 87.5608 13.2642 88.2701 13.2642C88.7009 13.2642 89.1185 13.3355 89.5229 13.478C89.9273 13.6205 90.2902 13.8442 90.6117 14.1491C90.9332 14.4541 91.1867 14.8501 91.3723 15.3374C91.5579 15.8213 91.6507 16.4096 91.6507 17.1023V17.6293H85.5804V16.5156H90.1941C90.1941 16.1245 90.1145 15.7782 89.9554 15.4766C89.7963 15.1716 89.5726 14.9313 89.2843 14.7557C88.9992 14.58 88.6645 14.4922 88.28 14.4922C87.8624 14.4922 87.4978 14.5949 87.1863 14.8004C86.878 15.0026 86.6394 15.2678 86.4703 15.5959C86.3046 15.9207 86.2218 16.2737 86.2218 16.6548V17.5249C86.2218 18.0353 86.3113 18.4695 86.4902 18.8274C86.6725 19.1854 86.9261 19.4588 87.2509 19.6477C87.5757 19.8333 87.9552 19.9261 88.3894 19.9261C88.6711 19.9261 88.928 19.8864 89.16 19.8068C89.392 19.724 89.5925 19.6013 89.7615 19.4389C89.9306 19.2765 90.0598 19.076 90.1493 18.8374L91.5563 19.0909C91.4436 19.5052 91.2414 19.8681 90.9498 20.1797C90.6614 20.4879 90.2985 20.7282 89.861 20.9006C89.4268 21.0696 88.9313 21.1541 88.3745 21.1541ZM93.3001 21V13.3636H94.7269V14.6065H94.8214C94.9805 14.1856 95.2406 13.8575 95.6019 13.6222C95.9632 13.3835 96.3957 13.2642 96.8995 13.2642C97.4099 13.2642 97.8375 13.3835 98.1822 13.6222C98.5302 13.8608 98.7871 14.1889 98.9528 14.6065H99.0323C99.2146 14.1989 99.5046 13.8741 99.9023 13.6321C100.3 13.3868 100.774 13.2642 101.324 13.2642C102.017 13.2642 102.582 13.4813 103.02 13.9155C103.46 14.3497 103.681 15.0043 103.681 15.8793V21H102.194V16.0185C102.194 15.5014 102.053 15.1269 101.772 14.8949C101.49 14.6629 101.154 14.5469 100.762 14.5469C100.279 14.5469 99.9023 14.696 99.6339 14.9943C99.3654 15.2893 99.2312 15.6688 99.2312 16.1328V21H97.7496V15.924C97.7496 15.5097 97.6204 15.1766 97.3619 14.9247C97.1033 14.6728 96.7669 14.5469 96.3526 14.5469C96.0709 14.5469 95.8107 14.6214 95.5721 14.7706C95.3368 14.9164 95.1462 15.1203 95.0004 15.3821C94.8578 15.6439 94.7866 15.9472 94.7866 16.2919V21H93.3001ZM108.89 21.1541C108.174 21.1541 107.549 20.9901 107.015 20.6619C106.482 20.3338 106.068 19.8748 105.773 19.2848C105.478 18.6948 105.33 18.0054 105.33 17.2166C105.33 16.4245 105.478 15.7318 105.773 15.1385C106.068 14.5452 106.482 14.0845 107.015 13.7564C107.549 13.4283 108.174 13.2642 108.89 13.2642C109.606 13.2642 110.23 13.4283 110.764 13.7564C111.298 14.0845 111.712 14.5452 112.007 15.1385C112.302 15.7318 112.449 16.4245 112.449 17.2166C112.449 18.0054 112.302 18.6948 112.007 19.2848C111.712 19.8748 111.298 20.3338 110.764 20.6619C110.23 20.9901 109.606 21.1541 108.89 21.1541ZM108.895 19.9062C109.359 19.9062 109.743 19.7836 110.048 19.5384C110.353 19.2931 110.578 18.9666 110.724 18.5589C110.873 18.1513 110.948 17.7022 110.948 17.2116C110.948 16.7244 110.873 16.277 110.724 15.8693C110.578 15.4583 110.353 15.1286 110.048 14.88C109.743 14.6314 109.359 14.5071 108.895 14.5071C108.427 14.5071 108.04 14.6314 107.731 14.88C107.426 15.1286 107.199 15.4583 107.05 15.8693C106.904 16.277 106.831 16.7244 106.831 17.2116C106.831 17.7022 106.904 18.1513 107.05 18.5589C107.199 18.9666 107.426 19.2931 107.731 19.5384C108.04 19.7836 108.427 19.9062 108.895 19.9062Z" fill="#EDEDED"/>
</svg>
