<svg width="228" height="70" viewBox="0 0 228 70" fill="none" xmlns="http://www.w3.org/2000/svg">
<g clip-path="url(#clip0_1816_61)">
<path d="M22.5362 20.8637L1.45843 8.61371C1.30963 8.52778 1.14072 8.48282 0.968895 8.4834C0.797069 8.48399 0.628468 8.53011 0.480264 8.61705C0.332059 8.704 0.209544 8.82867 0.125198 8.97837C0.0408507 9.12807 -0.00231524 9.29745 9.57352e-05 9.46926V43.5554C9.57352e-05 43.9054 0.19454 44.2165 0.486207 44.3915L8.36121 49.0193C8.50857 49.1043 8.67569 49.1493 8.84586 49.1495C9.01602 49.1498 9.18328 49.1054 9.3309 49.0207C9.47853 48.9361 9.60135 48.8142 9.6871 48.6672C9.77285 48.5202 9.81852 48.3533 9.81954 48.1832V25.9387C9.82062 25.871 9.83938 25.8047 9.87395 25.7464C9.90852 25.6882 9.95771 25.64 10.0167 25.6066C10.0756 25.5732 10.1422 25.5557 10.21 25.556C10.2777 25.5563 10.3442 25.5743 10.4029 25.6082L22.5557 32.5693C23.1485 32.9076 23.8201 33.084 24.5027 33.0806C25.1853 33.0771 25.8551 32.8941 26.4445 32.5498L38.3057 25.6082C38.3643 25.5743 38.4308 25.5563 38.4986 25.556C38.5663 25.5557 38.6329 25.5732 38.6919 25.6066C38.7508 25.64 38.8 25.6882 38.8346 25.7464C38.8691 25.8047 38.8879 25.871 38.889 25.9387V36.8276C38.8876 37.1599 38.8011 37.4863 38.6377 37.7756C38.4743 38.0649 38.2395 38.3076 37.9557 38.4804L25.7445 45.9859C25.6012 46.0732 25.4829 46.196 25.4011 46.3425C25.3194 46.4891 25.2769 46.6543 25.2779 46.822V57.7887C25.2779 58.1387 25.4529 58.4498 25.7251 58.6248L41.7279 68.7359C42.338 69.1204 43.0429 69.3276 43.764 69.3344C44.4851 69.3413 45.1939 69.1476 45.8112 68.7748L66.1501 56.7193C66.7335 56.3734 67.2162 55.881 67.5505 55.2909C67.8848 54.7008 68.0589 54.0336 68.0557 53.3554V32.3359C68.0567 32.1629 68.0115 31.9927 67.9247 31.8429C67.838 31.6932 67.7128 31.5693 67.5622 31.4841C67.4116 31.3989 67.2409 31.3554 67.0679 31.3582C66.8949 31.3609 66.7257 31.4098 66.5779 31.4998L60.1418 35.3887C59.5705 35.7319 59.097 36.2162 58.7667 36.795C58.4364 37.3738 58.2605 38.0278 58.2556 38.6943V49.2526C58.2546 49.4223 58.2092 49.5887 58.1239 49.7354C58.0387 49.8821 57.9165 50.0039 57.7695 50.0887L45.7334 57.1859C45.1313 57.5389 44.4454 57.7234 43.7474 57.72C43.0495 57.7166 42.3654 57.5254 41.7668 57.1665L35.2918 53.2776C35.1532 53.1928 35.038 53.0745 34.9569 52.9337C34.8758 52.7929 34.8312 52.634 34.8274 52.4715C34.8235 52.3091 34.8604 52.1482 34.9348 52.0037C35.0091 51.8592 35.1185 51.7356 35.2529 51.6443L46.9584 43.9248C47.4961 43.5707 47.9375 43.0887 48.2429 42.5219C48.5484 41.9551 48.7083 41.3214 48.7084 40.6776V9.46926C48.7074 9.2991 48.6617 9.13218 48.576 8.9852C48.4902 8.83822 48.3674 8.71632 48.2198 8.63168C48.0722 8.54704 47.9049 8.50263 47.7347 8.50289C47.5646 8.50315 47.3975 8.54807 47.2501 8.63315L26.4445 20.8637C25.851 21.2086 25.1768 21.3904 24.4904 21.3904C23.8039 21.3904 23.1297 21.2086 22.5362 20.8637Z" fill="#007FFF"/>
<path d="M68.0562 10.4224V17.0724C68.0575 17.7333 67.8904 18.3837 67.5706 18.962C67.2508 19.5404 66.7889 20.0277 66.2284 20.378L59.8118 24.3641C59.664 24.4541 59.4948 24.503 59.3218 24.5058C59.1487 24.5085 58.9781 24.4651 58.8275 24.3798C58.6768 24.2946 58.5517 24.1707 58.4649 24.021C58.3782 23.8712 58.333 23.701 58.334 23.528V16.5669C58.3347 15.8849 58.5147 15.2151 58.856 14.6247C59.1973 14.0343 59.6878 13.544 60.2784 13.203L66.5979 9.58632C66.7453 9.50123 66.9124 9.45631 67.0825 9.45606C67.2527 9.4558 67.42 9.50021 67.5676 9.58484C67.7152 9.66948 67.838 9.79139 67.9238 9.93837C68.0095 10.0854 68.0552 10.2523 68.0562 10.4224Z" fill="#007FFF"/>
<path d="M97.9609 51.5276V16.1387H106.711L121.411 36.5553L114.955 36.5165L129.694 16.1387H138.328V51.5276H128.722V41.7664C128.722 38.8692 128.78 36.2053 128.916 33.7942C129.053 31.3248 129.325 28.8359 129.733 26.347L130.744 29.4776L119.778 43.6331H116.433L105.505 29.3414L106.633 26.347C107.022 28.7776 107.294 31.2081 107.43 33.6387C107.566 36.0498 107.625 38.772 107.625 41.7664V51.5276H97.9804H97.9609ZM165.783 51.8387C162.341 51.8387 159.289 51.1581 156.644 49.8164C154.102 48.5531 151.961 46.6075 150.461 44.197C148.998 41.7348 148.25 38.9134 148.303 36.0498V16.1387H158.414V35.7581C158.414 37.2359 158.725 38.5387 159.366 39.647C160.008 40.7553 160.883 41.6109 161.991 42.2331C163.159 42.8481 164.464 43.1559 165.783 43.1276C167.261 43.1276 168.583 42.8359 169.73 42.2331C170.897 41.6109 171.811 40.7553 172.453 39.647C173.133 38.5387 173.464 37.2359 173.464 35.7581V16.1387H183.283V36.0498C183.328 38.899 182.566 41.7028 181.087 44.1384C179.608 46.5739 177.471 48.5422 174.922 49.8164C172.336 51.1581 169.283 51.8387 165.783 51.8387ZM193.803 51.5276V43.1276H201.95V24.5387H193.803V16.1387H220.053V24.5387H211.944V43.1276H220.033V51.5276H193.783H193.803Z" fill="white"/>
</g>
<defs>
<clipPath id="clip0_1816_61">
<rect width="227.5" height="70" fill="white"/>
</clipPath>
</defs>
</svg>
