<svg width="361" height="70" viewBox="0 0 361 70" fill="none" xmlns="http://www.w3.org/2000/svg">
<g clip-path="url(#clip0_1814_41)">
<path d="M114.914 33.2765V62.0407H103.344V12.9498H114.403V21.2914H114.978C116.107 18.5429 117.908 16.3589 120.379 14.7396C122.872 13.1203 125.951 12.3106 129.616 12.3106C133.004 12.3106 135.955 13.035 138.469 14.4839C141.004 15.9328 142.965 18.0315 144.349 20.7801C145.756 23.5287 146.448 26.8632 146.427 30.7836V62.0407H134.857V32.5734C134.857 29.2921 134.005 26.7247 132.3 24.871C130.617 23.0173 128.284 22.0904 125.301 22.0904C123.277 22.0904 121.477 22.5379 119.9 23.4328C118.344 24.3064 117.119 25.5741 116.224 27.236C115.351 28.898 114.914 30.9115 114.914 33.2765ZM176.321 62.9995C171.399 62.9995 167.149 61.9768 163.569 59.9314C160.011 57.8646 157.273 54.9456 155.355 51.1742C153.438 47.3816 152.479 42.9179 152.479 37.7829C152.479 32.7332 153.438 28.3014 155.355 24.4875C157.294 20.6522 160 17.6693 163.473 15.5386C166.946 13.3866 171.026 12.3106 175.714 12.3106C178.74 12.3106 181.595 12.8007 184.279 13.7808C186.985 14.7396 189.372 16.2311 191.438 18.2552C193.526 20.2794 195.167 22.8575 196.36 25.9896C197.553 29.1004 198.15 32.8078 198.15 37.1117V40.6593H157.912V32.861H187.06C187.039 30.6451 186.559 28.6742 185.622 26.9484C184.684 25.2012 183.374 23.8269 181.691 22.8255C180.029 21.8241 178.09 21.3234 175.874 21.3234C173.509 21.3234 171.431 21.8987 169.642 23.0492C167.852 24.1785 166.456 25.67 165.455 27.5237C164.475 29.3561 163.974 31.3696 163.953 33.5642V40.3717C163.953 43.2268 164.475 45.6771 165.519 47.7225C166.563 49.7467 168.022 51.3021 169.897 52.3887C171.772 53.4541 173.967 53.9867 176.481 53.9867C178.164 53.9867 179.688 53.7524 181.051 53.2836C182.415 52.7936 183.597 52.0798 184.599 51.1423C185.6 50.2048 186.357 49.0436 186.868 47.6586L197.671 48.8731C196.989 51.7282 195.689 54.2211 193.771 56.3518C191.875 58.4612 189.446 60.1018 186.485 61.2737C183.523 62.4243 180.135 62.9995 176.321 62.9995ZM211.098 12.9498L221.006 31.0713L231.073 12.9498H243.314L228.516 37.4953L243.57 62.0407H231.393L221.006 44.3667L210.715 62.0407H198.442L213.399 37.4953L198.825 12.9498H211.098ZM274.976 12.9498V21.8987H246.755V12.9498H274.976ZM253.723 1.18848H265.292V47.2751C265.292 48.8305 265.527 50.0237 265.996 50.8546C266.486 51.6643 267.125 52.2183 267.913 52.5166C268.701 52.8149 269.575 52.964 270.534 52.964C271.258 52.964 271.919 52.9108 272.515 52.8042C273.133 52.6977 273.602 52.6018 273.922 52.5166L275.871 61.5613C275.253 61.7744 274.369 62.0088 273.219 62.2644C272.089 62.5201 270.704 62.6693 269.064 62.7119C266.166 62.7971 263.556 62.3603 261.233 61.4015C258.911 60.4214 257.068 58.9086 255.704 56.8632C254.362 54.8177 253.701 52.2609 253.723 49.1927V1.18848ZM282.852 62.0407V12.9498H294.07V21.1316H294.582C295.477 18.2978 297.011 16.1139 299.184 14.5798C301.357 13.0244 303.861 12.2467 306.695 12.2467C308.016 12.2467 309.23 12.4065 310.338 12.7261C311.446 13.0457 312.426 13.4825 313.278 14.0365L309.699 23.6245C309.081 23.3262 308.399 23.0812 307.653 22.8894C306.908 22.6977 306.066 22.6018 305.129 22.6018C303.126 22.6018 301.315 23.0492 299.695 23.9441C298.076 24.839 296.787 26.0855 295.828 27.6835C294.891 29.2602 294.422 31.0926 294.422 33.1806V62.0407H282.852ZM334.074 62.9037C330.218 62.9037 326.766 61.9129 323.719 59.9314C320.672 57.9498 318.265 55.0734 316.496 51.3021C314.728 47.5308 313.844 42.9498 313.844 37.5592C313.844 32.1046 314.738 27.5024 316.528 23.7524C318.339 19.9811 320.779 17.1366 323.847 15.219C326.915 13.2801 330.335 12.3106 334.106 12.3106C336.983 12.3106 339.348 12.8007 341.201 13.7808C343.055 14.7396 344.525 15.9008 345.612 17.2644C346.699 18.6068 347.54 19.8745 348.137 21.0677H348.616V12.9498H360.218V62.0407H348.84V54.3064H348.137C347.54 55.4995 346.677 56.7673 345.548 58.1096C344.419 59.4306 342.927 60.5599 341.074 61.4974C339.22 62.4349 336.887 62.9037 334.074 62.9037ZM337.302 53.4115C339.753 53.4115 341.841 52.751 343.567 51.4299C345.292 50.0876 346.603 48.2233 347.498 45.8369C348.393 43.4505 348.84 40.67 348.84 37.4953C348.84 34.3206 348.393 31.5613 347.498 29.2176C346.624 26.8738 345.324 25.0521 343.598 23.7524C341.894 22.4527 339.795 21.8028 337.302 21.8028C334.724 21.8028 332.572 22.474 330.846 23.8163C329.12 25.1586 327.821 27.0123 326.947 29.3774C326.074 31.7424 325.637 34.4484 325.637 37.4953C325.637 40.5635 326.074 43.3014 326.947 45.7091C327.842 48.0954 329.152 49.9811 330.878 51.366C332.625 52.7296 334.767 53.4115 337.302 53.4115Z" fill="white"/>
<path d="M64.8824 1.81339L62.036 4.65977C47.1265 19.5692 22.9534 19.5692 8.04394 4.65976L5.19757 1.81339C4.26278 0.87861 2.7472 0.87861 1.81242 1.81339C0.877631 2.74817 0.877641 4.26376 1.81242 5.19854L4.65879 8.04491C19.5683 22.9544 19.5683 47.1275 4.65879 62.037L1.81242 64.8833C0.877631 65.8181 0.877631 67.3337 1.81242 68.2685C2.7472 69.2033 4.26279 69.2033 5.19757 68.2685L8.04394 65.4221C22.9535 50.5126 47.1265 50.5126 62.036 65.4221L64.8824 68.2685C65.8172 69.2033 67.3328 69.2033 68.2676 68.2685C69.2023 67.3337 69.2023 65.8181 68.2676 64.8833L65.4212 62.037C50.5117 47.1275 50.5117 22.9544 65.4212 8.04491L68.2676 5.19854C69.2023 4.26376 69.2023 2.74817 68.2676 1.81339C67.3328 0.87861 65.8172 0.87861 64.8824 1.81339Z" fill="white" stroke="white" stroke-width="2"/>
</g>
<defs>
<clipPath id="clip0_1814_41">
<rect width="361" height="70" fill="white"/>
</clipPath>
</defs>
</svg>
