<svg width="350" height="70" viewBox="0 0 350 70" fill="none" xmlns="http://www.w3.org/2000/svg">
<g clip-path="url(#clip0_1815_46)">
<path d="M232.08 0.0292969H292.89V11.2532H268.767V70.3004H256.705V11.2532H232.08V0.0292969Z" fill="white"/>
<path d="M132.071 0.0292969V11.2532H83.3281V29.3089H122.527V40.5327H83.3281V59.0765H132.071V70.3004H71.2668V11.2532H71.2617V0.0292969H132.071Z" fill="white"/>
<path d="M162.435 0.0585938H146.65L203.187 70.3297H219.018L190.746 35.2183L218.973 0.112206L203.187 0.1366L182.843 25.4035L162.435 0.0585938Z" fill="white"/>
<path d="M178.633 50.2536L170.728 40.4253L146.605 70.3833H162.435L178.633 50.2536Z" fill="white"/>
<path fill-rule="evenodd" clip-rule="evenodd" d="M71.6897 70.3004L15.0767 0H0V70.2711H12.0614V15.0204L56.5376 70.3004H71.6897Z" fill="white"/>
<path d="M295.601 69.8712C294.717 69.8712 293.966 69.5653 293.337 68.9533C292.707 68.3412 292.396 67.6003 292.404 66.7226C292.396 65.8689 292.707 65.136 293.337 64.524C293.966 63.912 294.717 63.606 295.601 63.606C296.45 63.606 297.194 63.912 297.823 64.524C298.461 65.136 298.779 65.8689 298.788 66.7226C298.779 67.3023 298.632 67.8338 298.338 68.3089C298.035 68.7922 297.652 69.1707 297.169 69.4445C296.695 69.7264 296.172 69.8712 295.601 69.8712Z" fill="white"/>
<path d="M316.187 40.2681H321.532V60.8599C321.524 62.7523 321.114 64.371 320.314 65.732C319.505 67.0929 318.385 68.1317 316.947 68.8646C315.517 69.5893 313.842 69.9598 311.937 69.9598C310.196 69.9598 308.636 69.6457 307.246 69.0337C305.857 68.4217 304.754 67.5036 303.945 66.2957C303.127 65.0877 302.727 63.5818 302.727 61.7779H308.08C308.088 62.5671 308.268 63.2515 308.611 63.8233C308.954 64.3951 309.428 64.8299 310.033 65.136C310.645 65.442 311.349 65.595 312.141 65.595C313 65.595 313.735 65.4178 314.332 65.0554C314.928 64.7011 315.386 64.1696 315.705 63.4609C316.015 62.7604 316.179 61.8906 316.187 60.8599V40.2681Z" fill="white"/>
<path d="M343.524 48.3212C343.394 47.073 342.821 46.0986 341.824 45.406C340.819 44.7054 339.52 44.3591 337.926 44.3591C336.806 44.3591 335.842 44.5283 335.041 44.8584C334.24 45.1966 333.619 45.6476 333.194 46.2193C332.769 46.7911 332.557 47.4435 332.54 48.1763C332.54 48.7883 332.687 49.3198 332.973 49.7628C333.259 50.2137 333.643 50.5922 334.142 50.8983C334.632 51.2123 335.18 51.47 335.777 51.6793C336.381 51.8887 336.986 52.0659 337.591 52.2109L340.377 52.8954C341.497 53.1531 342.585 53.4994 343.622 53.9423C344.66 54.3772 345.6 54.9328 346.425 55.6012C347.251 56.2697 347.905 57.0749 348.387 58.0172C348.869 58.9593 349.114 60.0626 349.114 61.335C349.114 63.0503 348.673 64.5562 347.781 65.8608C346.891 67.1573 345.608 68.1721 343.924 68.9049C342.249 69.6297 340.222 70.0001 337.836 70.0001C335.531 70.0001 333.521 69.6459 331.829 68.9372C330.13 68.2366 328.805 67.2057 327.849 65.8527C326.893 64.4999 326.378 62.849 326.305 60.9082H331.601C331.674 61.9228 332.001 62.7685 332.557 63.453C333.12 64.1294 333.856 64.6287 334.755 64.9669C335.663 65.2971 336.675 65.4662 337.795 65.4662C338.964 65.4662 339.994 65.289 340.884 64.9427C341.767 64.5965 342.461 64.1134 342.96 63.4852C343.467 62.8651 343.721 62.1323 343.728 61.2948C343.721 60.5297 343.491 59.8934 343.05 59.3941C342.601 58.8949 341.979 58.4762 341.186 58.138C340.386 57.7997 339.454 57.4937 338.392 57.228L335.009 56.3743C332.565 55.7542 330.628 54.8121 329.214 53.5477C327.792 52.2834 327.089 50.6083 327.089 48.5065C327.089 46.7832 327.563 45.2692 328.52 43.9726C329.467 42.6761 330.767 41.6694 332.41 40.9527C334.061 40.228 335.924 39.8735 337.999 39.8735C340.108 39.8735 341.955 40.228 343.549 40.9527C345.142 41.6694 346.393 42.668 347.299 43.9404C348.207 45.2128 348.681 46.6704 348.706 48.3212H343.524Z" fill="white"/>
</g>
<defs>
<clipPath id="clip0_1815_46">
<rect width="349.114" height="70" fill="white"/>
</clipPath>
</defs>
</svg>
