<svg width="560" height="70" viewBox="0 0 560 70" fill="none" xmlns="http://www.w3.org/2000/svg">
<path fill-rule="evenodd" clip-rule="evenodd" d="M57.619 0C42.2529 0 32.6516 7.63677 28.8084 22.9103C34.571 15.2735 41.2932 12.4103 48.9752 14.3184C53.3581 15.4068 56.4923 18.5681 59.9584 22.0681C65.6081 27.7674 72.1474 34.3632 86.4274 34.3632C101.791 34.3632 111.395 26.7265 115.236 11.4552C109.475 19.0919 102.753 21.9552 95.0713 20.0448C90.6861 18.9565 87.5519 15.7952 84.0858 12.2974C78.4361 6.59355 71.899 0 57.619 0ZM28.8084 34.3632C13.4445 34.3632 3.84097 42 0 57.2735C5.76258 49.6368 12.4848 46.7735 20.1645 48.6816C24.5497 49.77 27.6839 52.9313 31.15 56.4313C36.7997 62.1306 43.3368 68.7265 57.619 68.7265C72.9829 68.7265 82.5865 61.0919 86.4274 45.8184C80.6648 53.4552 73.9426 56.3184 66.2606 54.4103C61.8777 53.3197 58.7435 50.1584 55.2774 46.6606C49.6277 40.9613 43.0884 34.3632 28.8084 34.3632Z" fill="#38BDF8"/>
<path fill-rule="evenodd" clip-rule="evenodd" d="M172.845 28.9596H162.79V48.3045C162.79 53.4642 166.195 53.3829 172.845 53.06V60.8796C159.383 62.4919 154.031 58.7842 154.031 48.3045V28.9596H146.57V20.5755H154.031V9.75029L162.79 7.16932V20.5755H172.845V28.9596ZM211.174 20.5755H219.93V60.8796H211.174V55.0764C208.091 59.3464 203.306 61.9274 196.982 61.9274C185.953 61.9274 176.79 52.658 176.79 40.7264C176.79 28.718 185.953 19.5277 196.982 19.5277C203.306 19.5277 208.091 22.1064 211.174 26.2996V20.5755ZM198.361 53.6245C205.659 53.6245 211.174 48.2232 211.174 40.7264C211.174 33.2296 205.659 27.8306 198.361 27.8306C191.063 27.8306 185.549 33.2319 185.549 40.7264C185.549 48.2232 191.063 53.6245 198.361 53.6245ZM234.526 14.5306C231.446 14.5306 228.933 11.9519 228.933 8.969C228.94 7.4907 229.533 6.07546 230.581 5.0331C231.63 3.99074 233.048 3.40618 234.526 3.40739C236.005 3.40558 237.424 3.98987 238.473 5.0323C239.522 6.07473 240.115 7.49031 240.122 8.969C240.122 11.9496 237.609 14.5306 234.526 14.5306ZM230.148 60.8796V20.5755H238.907V60.8796H230.148ZM249.044 60.8796V2.03223H257.8V60.8774H249.044V60.8796ZM314.647 20.5755H323.892L311.161 60.8796H302.564L294.13 33.7151L285.615 60.8796H277.021L264.288 20.5755H273.532L281.399 48.3835L289.915 20.5755H298.267L306.699 48.3835L314.647 20.5755ZM334.757 14.5306C331.675 14.5306 329.162 11.9519 329.162 8.969C329.169 7.49031 329.762 6.07473 330.811 5.0323C331.86 3.98987 333.279 3.40558 334.757 3.40739C336.236 3.40558 337.655 3.98987 338.704 5.0323C339.753 6.07473 340.346 7.49031 340.353 8.969C340.353 11.9496 337.84 14.5306 334.757 14.5306ZM330.379 60.8796V20.5755H339.136V60.8796H330.379ZM370.6 19.5277C379.682 19.5277 386.169 25.6538 386.169 36.1335V60.8774H377.412V37.0187C377.412 30.8925 373.844 27.6703 368.33 27.6703C362.572 27.6703 358.031 31.0551 358.031 39.2767V60.8796H349.272V20.5755H358.031V25.7351C360.707 21.5442 365.085 19.5277 370.6 19.5277ZM427.688 4.45513H436.447V60.8774H427.688V55.0742C424.608 59.3464 419.823 61.9251 413.498 61.9251C402.47 61.9251 393.307 52.6558 393.307 40.7242C393.307 28.7158 402.47 19.5255 413.498 19.5255C419.823 19.5255 424.608 22.1042 427.688 26.2974V4.45513ZM414.876 53.6245C422.174 53.6245 427.688 48.2232 427.688 40.7264C427.688 33.2296 422.174 27.8306 414.876 27.8306C407.578 27.8306 402.064 33.2319 402.064 40.7264C402.064 48.2232 407.578 53.6245 414.876 53.6245ZM465.802 61.9274C453.556 61.9274 444.393 52.658 444.393 40.7264C444.393 28.718 453.556 19.5277 465.802 19.5277C473.748 19.5277 480.642 23.6374 483.885 29.9261L476.343 34.2796C474.559 30.4906 470.587 28.0722 465.721 28.0722C458.585 28.0722 453.152 33.4735 453.152 40.7264C453.152 47.9816 458.585 53.3829 465.721 53.3829C470.587 53.3829 474.559 50.8832 476.505 47.1755L484.047 51.4477C480.642 57.8155 473.748 61.9274 465.802 61.9274ZM498.481 31.6987C498.481 39.0351 520.296 34.6003 520.296 49.5148C520.296 57.5761 513.239 61.9274 504.483 61.9274C496.374 61.9274 490.534 58.2987 487.94 52.4955L495.482 48.1442C496.778 51.7706 500.023 53.9474 504.483 53.9474C508.375 53.9474 511.374 52.658 511.374 49.4313C511.374 42.2596 489.561 46.2903 489.561 31.8613C489.561 24.2832 496.13 19.5277 504.401 19.5277C511.051 19.5277 516.565 22.5919 519.404 27.9119L512.024 32.0216C510.564 28.8784 507.725 27.4264 504.401 27.4264C501.238 27.4264 498.481 28.7971 498.481 31.6987ZM535.865 31.6987C535.865 39.0351 557.678 34.6003 557.678 49.5148C557.678 57.5761 550.624 61.9274 541.865 61.9274C533.756 61.9274 527.919 58.2987 525.322 52.4955L532.864 48.1442C534.163 51.7706 537.405 53.9474 541.865 53.9474C545.758 53.9474 548.759 52.658 548.759 49.4313C548.759 42.2596 526.946 46.2903 526.946 31.8613C526.946 24.2832 533.512 19.5277 541.786 19.5277C548.434 19.5277 553.948 22.5919 556.786 27.9119L549.407 32.0216C547.948 28.8784 545.11 27.4264 541.786 27.4264C538.622 27.4264 535.865 28.7971 535.865 31.6987Z" fill="white"/>
</svg>
