<svg width="2292" height="80" viewBox="0 0 2292 80" fill="none" xmlns="http://www.w3.org/2000/svg">
<g clip-path="url(#clip0_1818_99)">
<path d="M152.579 22.4998C140.689 22.4998 132.117 30.2537 132.117 41.8844C132.117 53.5152 141.766 61.269 153.656 61.269C160.839 61.269 167.171 58.426 171.091 53.6337L162.853 48.8737C160.677 51.2537 157.371 52.6429 153.656 52.6429C148.497 52.6429 144.114 49.9506 142.488 45.6429H172.663C172.9 44.4367 173.04 43.1875 173.04 41.8737C173.04 30.2537 164.468 22.4998 152.579 22.4998ZM142.391 38.1152C143.737 33.8183 147.42 31.1152 152.568 31.1152C157.726 31.1152 161.409 33.8183 162.745 38.1152H142.391ZM268.542 22.4998C256.653 22.4998 248.08 30.2537 248.08 41.8844C248.08 53.5152 257.729 61.269 269.619 61.269C276.802 61.269 283.134 58.426 287.054 53.6337L278.816 48.8737C276.64 51.2537 273.334 52.6429 269.619 52.6429C264.46 52.6429 260.077 49.9506 258.451 45.6429H288.626C288.863 44.4367 289.003 43.1875 289.003 41.8737C289.003 30.2537 280.431 22.4998 268.542 22.4998ZM258.365 38.1152C259.711 33.8183 263.394 31.1152 268.542 31.1152C273.7 31.1152 277.383 33.8183 278.719 38.1152H258.365ZM216.333 41.8844C216.333 48.346 220.554 52.6537 227.102 52.6537C231.539 52.6537 234.866 50.6398 236.579 47.3552L244.849 52.126C241.425 57.8337 235.006 61.269 227.102 61.269C215.202 61.269 206.64 53.5152 206.64 41.8844C206.64 30.2537 215.213 22.4998 227.102 22.4998C235.006 22.4998 241.414 25.9352 244.849 31.6429L236.579 36.4137C234.866 33.129 231.539 31.1152 227.102 31.1152C220.565 31.1152 216.333 35.4229 216.333 41.8844ZM305.157 10.6537V60.1921H295.465V10.6537H305.157ZM40.4818 5.26904L80.2741 74.1921H0.689453L40.4818 5.26904ZM139.968 10.6537L110.126 62.346L80.2848 10.6537H91.4741L110.126 42.9614L128.779 10.6537H139.968ZM203.409 23.5767V34.0121C202.333 33.6998 201.191 33.4844 199.963 33.4844C193.706 33.4844 189.194 37.7921 189.194 44.2537V60.1921H179.502V23.5767H189.194V33.4844C189.194 28.0137 195.559 23.5767 203.409 23.5767Z" fill="white"/>
</g>
<line x1="347.346" y1="20" x2="347.346" y2="60" stroke="#8A3EFF" stroke-width="3"/>
<g clip-path="url(#clip1_1818_99)">
<path d="M492.55 38.3996V65.1092H481.807V19.5248H492.076V27.2705H492.61C493.658 24.7184 495.33 22.6904 497.625 21.1867C499.94 19.6831 502.799 18.9312 506.202 18.9312C509.348 18.9312 512.088 19.6039 514.423 20.9493C516.777 22.2947 518.598 24.2435 519.883 26.7958C521.189 29.348 521.832 32.4444 521.812 36.0847V65.1092H511.069V37.7467C511.069 34.6998 510.278 32.3157 508.694 30.5945C507.132 28.8732 504.965 28.0125 502.195 28.0125C500.316 28.0125 498.644 28.428 497.18 29.259C495.735 30.0702 494.598 31.2473 493.767 32.7905C492.956 34.3338 492.55 36.2035 492.55 38.3996ZM549.571 65.9995C545.001 65.9995 541.054 65.0498 537.73 63.1505C534.426 61.2314 531.884 58.5209 530.103 55.0189C528.323 51.4972 527.432 47.3523 527.432 42.5841C527.432 37.8951 528.323 33.7798 530.103 30.2383C531.903 26.677 534.416 23.9072 537.641 21.9287C540.866 19.9304 544.654 18.9312 549.007 18.9312C551.817 18.9312 554.468 19.3863 556.961 20.2964C559.473 21.1867 561.69 22.5717 563.608 24.4512C565.547 26.3308 567.071 28.7248 568.179 31.6332C569.286 34.5218 569.841 37.9643 569.841 41.9608V45.255H532.477V38.0137H559.543C559.523 35.9561 559.078 34.126 558.208 32.5235C557.337 30.9011 556.12 29.6249 554.557 28.6951C553.014 27.7652 551.214 27.3003 549.156 27.3003C546.96 27.3003 545.03 27.8345 543.369 28.9028C541.707 29.9514 540.411 31.3364 539.481 33.0577C538.571 34.7592 538.106 36.6289 538.086 38.6667V44.988C538.086 47.6391 538.571 49.9144 539.541 51.8137C540.51 53.6933 541.865 55.1376 543.606 56.1466C545.347 57.1359 547.385 57.6305 549.72 57.6305C551.282 57.6305 552.698 57.4129 553.963 56.9776C555.23 56.5226 556.327 55.8598 557.258 54.9892C558.187 54.1187 558.89 53.0404 559.365 51.7544L569.396 52.8821C568.763 55.5333 567.556 57.8481 565.775 59.8266C564.014 61.7854 561.759 63.3088 559.009 64.397C556.259 65.4654 553.113 65.9995 549.571 65.9995ZM581.864 19.5248L591.064 36.3519L600.412 19.5248H611.779L598.038 42.317L612.017 65.1092H600.709L591.064 48.6976L581.508 65.1092H570.112L584.001 42.317L570.468 19.5248H581.864ZM641.179 19.5248V27.8345H614.974V19.5248H641.179ZM621.444 8.60352H632.187V51.3983C632.187 52.8426 632.405 53.9505 632.841 54.7221C633.296 55.4739 633.889 55.9884 634.621 56.2654C635.352 56.5424 636.164 56.6808 637.055 56.6808C637.727 56.6808 638.341 56.6314 638.894 56.5324C639.468 56.4335 639.903 56.3445 640.201 56.2654L642.01 64.664C641.436 64.8619 640.616 65.0796 639.548 65.3169C638.498 65.5543 637.212 65.6929 635.69 65.7324C632.999 65.8115 630.575 65.4059 628.418 64.5156C626.262 63.6055 624.55 62.2008 623.284 60.3015C622.038 58.4021 621.424 56.0279 621.444 53.1789V8.60352ZM648.493 65.1092V19.5248H658.909V27.1222H659.385C660.216 24.4908 661.64 22.4629 663.658 21.0383C665.676 19.594 668.001 18.8719 670.633 18.8719C671.859 18.8719 672.987 19.0203 674.015 19.317C675.044 19.6138 675.954 20.0194 676.745 20.5338L673.422 29.437C672.848 29.16 672.215 28.9325 671.522 28.7544C670.83 28.5764 670.049 28.4873 669.178 28.4873C667.319 28.4873 665.637 28.9028 664.133 29.7338C662.629 30.5647 661.432 31.7222 660.542 33.2061C659.672 34.6701 659.236 36.3717 659.236 38.3105V65.1092H648.493ZM696.056 65.9105C692.475 65.9105 689.27 64.9905 686.441 63.1505C683.611 61.3105 681.376 58.6395 679.734 55.1376C678.092 51.6357 677.271 47.3819 677.271 42.3764C677.271 37.3114 678.101 33.0379 679.763 29.5558C681.445 26.0538 683.711 23.4125 686.559 21.6319C689.408 19.8315 692.584 18.9312 696.086 18.9312C698.757 18.9312 700.953 19.3863 702.674 20.2964C704.395 21.1867 705.76 22.265 706.77 23.5312C707.779 24.7777 708.56 25.9548 709.114 27.0628H709.559V19.5248H720.333V65.1092H709.767V57.9273H709.114C708.56 59.0352 707.759 60.2124 706.71 61.4589C705.662 62.6855 704.277 63.7341 702.556 64.6047C700.834 65.4752 698.668 65.9105 696.056 65.9105ZM699.053 57.0963C701.329 57.0963 703.268 56.483 704.871 55.2563C706.473 54.0099 707.69 52.2787 708.521 50.0628C709.352 47.8468 709.767 45.265 709.767 42.317C709.767 39.3691 709.352 36.8069 708.521 34.6306C707.71 32.4542 706.502 30.7626 704.9 29.5558C703.317 28.3489 701.368 27.7454 699.053 27.7454C696.66 27.7454 694.661 28.3687 693.059 29.6151C691.456 30.8615 690.25 32.5828 689.438 34.779C688.627 36.975 688.222 39.4878 688.222 42.317C688.222 45.1661 688.627 47.7084 689.438 49.9441C690.269 52.16 691.486 53.911 693.088 55.197C694.71 56.4632 696.699 57.0963 699.053 57.0963Z" fill="white"/>
<path d="M446.095 9.18372L443.452 11.8268C429.607 25.6713 407.161 25.6713 393.316 11.8268L390.673 9.18372C389.805 8.31571 388.398 8.31571 387.53 9.18372C386.662 10.0517 386.662 11.4591 387.53 12.3271L390.173 14.9701C404.018 28.8147 404.018 51.2611 390.173 65.1057L387.53 67.7487C386.662 68.6167 386.662 70.024 387.53 70.8921C388.398 71.7601 389.805 71.7601 390.673 70.8921L393.316 68.249C407.161 54.4044 429.607 54.4044 443.452 68.249L446.095 70.8921C446.963 71.7601 448.37 71.7601 449.238 70.8921C450.106 70.024 450.106 68.6167 449.238 67.7487L446.595 65.1057C432.751 51.2611 432.751 28.8147 446.595 14.9701L449.238 12.3271C450.106 11.4591 450.106 10.0517 449.238 9.18372C448.37 8.31571 446.963 8.31571 446.095 9.18372Z" fill="white" stroke="white" stroke-width="2"/>
</g>
<line x1="762.561" y1="20" x2="762.561" y2="60" stroke="#8A3EFF" stroke-width="3"/>
<g clip-path="url(#clip2_1818_99)">
<path d="M993.355 11.0244H1043.74V20.3242H1023.75V69.249H1013.76V20.3242H993.355V11.0244Z" fill="white"/>
<path d="M910.49 11.0244V20.3242H870.103V35.2847H902.583V44.5844H870.103V59.9493H910.49V69.249H860.11V20.3242H860.105V11.0244H910.49Z" fill="white"/>
<path d="M935.649 11.0483H922.57L969.415 69.273H982.532L959.107 40.1807L982.495 11.0928L969.415 11.113L952.559 32.0484L935.649 11.0483Z" fill="white"/>
<path d="M949.07 52.6385L942.52 44.4951L922.533 69.3174H935.649L949.07 52.6385Z" fill="white"/>
<path fill-rule="evenodd" clip-rule="evenodd" d="M860.461 69.2489L813.553 11H801.061V69.2246H811.054V23.4455L847.906 69.2489H860.461Z" fill="white"/>
<path d="M1045.99 68.8934C1045.26 68.8934 1044.63 68.6399 1044.11 68.1328C1043.59 67.6257 1043.33 67.0117 1043.34 66.2845C1043.33 65.5772 1043.59 64.9699 1044.11 64.4628C1044.63 63.9557 1045.26 63.7021 1045.99 63.7021C1046.69 63.7021 1047.31 63.9557 1047.83 64.4628C1048.36 64.9699 1048.62 65.5772 1048.63 66.2845C1048.62 66.7648 1048.5 67.2052 1048.26 67.5989C1048.01 67.9993 1047.69 68.3129 1047.29 68.5398C1046.89 68.7733 1046.46 68.8934 1045.99 68.8934Z" fill="white"/>
<path d="M1063.04 44.3647H1067.47V61.4265C1067.47 62.9946 1067.13 64.3358 1066.46 65.4635C1065.79 66.5911 1064.87 67.4518 1063.67 68.059C1062.49 68.6595 1061.1 68.9665 1059.52 68.9665C1058.08 68.9665 1056.79 68.7063 1055.64 68.1992C1054.48 67.6921 1053.57 66.9314 1052.9 65.9305C1052.22 64.9296 1051.89 63.6818 1051.89 62.1872H1056.33C1056.33 62.8411 1056.48 63.4082 1056.77 63.882C1057.05 64.3557 1057.44 64.716 1057.94 64.9696C1058.45 65.2232 1059.03 65.35 1059.69 65.35C1060.4 65.35 1061.01 65.2031 1061.51 64.9028C1062 64.6092 1062.38 64.1689 1062.64 63.5817C1062.9 63.0013 1063.04 62.2806 1063.04 61.4265V44.3647Z" fill="white"/>
<path d="M1085.7 51.0376C1085.59 50.0033 1085.11 49.196 1084.29 48.6221C1083.45 48.0416 1082.38 47.7547 1081.06 47.7547C1080.13 47.7547 1079.33 47.8949 1078.67 48.1684C1078 48.4487 1077.49 48.8223 1077.14 49.296C1076.78 49.7698 1076.61 50.3103 1076.59 50.9175C1076.59 51.4246 1076.72 51.865 1076.95 52.232C1077.19 52.6056 1077.51 52.9193 1077.92 53.1729C1078.33 53.4331 1078.78 53.6466 1079.28 53.82C1079.78 53.9935 1080.28 54.1404 1080.78 54.2605L1083.09 54.8276C1084.02 55.0411 1084.92 55.3281 1085.78 55.6951C1086.64 56.0554 1087.42 56.5158 1088.1 57.0696C1088.78 57.6234 1089.32 58.2907 1089.72 59.0714C1090.12 59.852 1090.33 60.7662 1090.33 61.8204C1090.33 63.2417 1089.96 64.4895 1089.22 65.5704C1088.48 66.6446 1087.42 67.4854 1086.03 68.0927C1084.64 68.6932 1082.96 69.0001 1080.98 69.0001C1079.07 69.0001 1077.41 68.7066 1076.01 68.1194C1074.6 67.5389 1073.5 66.6847 1072.71 65.5637C1071.92 64.4428 1071.49 63.0749 1071.43 61.4668H1075.82C1075.88 62.3075 1076.15 63.0082 1076.61 63.5753C1077.08 64.1358 1077.68 64.5495 1078.43 64.8298C1079.18 65.1033 1080.02 65.2435 1080.95 65.2435C1081.92 65.2435 1082.77 65.0966 1083.51 64.8097C1084.24 64.5228 1084.81 64.1225 1085.23 63.6021C1085.65 63.0882 1085.86 62.4811 1085.86 61.7871C1085.86 61.1532 1085.67 60.626 1085.3 60.2123C1084.93 59.7987 1084.42 59.4517 1083.76 59.1715C1083.1 58.8912 1082.32 58.6376 1081.44 58.4175L1078.64 57.7102C1076.61 57.1964 1075.01 56.4157 1073.84 55.3681C1072.66 54.3205 1072.08 52.9326 1072.08 51.1911C1072.08 49.7632 1072.47 48.5088 1073.26 47.4345C1074.05 46.3602 1075.13 45.5261 1076.49 44.9322C1077.85 44.3318 1079.4 44.0381 1081.12 44.0381C1082.86 44.0381 1084.39 44.3318 1085.72 44.9322C1087.04 45.5261 1088.07 46.3535 1088.82 47.4077C1089.58 48.462 1089.97 49.6697 1089.99 51.0376H1085.7Z" fill="white"/>
</g>
<line x1="1131.83" y1="20" x2="1131.83" y2="60" stroke="#8A3EFF" stroke-width="3"/>
<g clip-path="url(#clip3_1818_99)">
<path d="M1173.33 0H1247.33C1248.98 0 1250.33 1.34314 1250.33 3V77C1250.33 78.6569 1248.98 80 1247.33 80H1173.33C1171.67 80 1170.33 78.6569 1170.33 77V3C1170.33 1.34314 1171.67 0 1173.33 0Z" fill="white"/>
<path d="M1173.33 0H1247.33C1248.98 0 1250.33 1.34314 1250.33 3V77C1250.33 78.6569 1248.98 80 1247.33 80H1173.33C1171.67 80 1170.33 78.6569 1170.33 77V3C1170.33 1.34314 1171.67 0 1173.33 0ZM1214.8 42.56V35.9988H1186.33V42.56H1196.49V71.7742H1204.58V42.56H1214.8ZM1218.02 71.0028C1219.33 71.668 1220.87 72.1671 1222.65 72.4997C1224.43 72.8323 1226.31 72.9988 1228.29 72.9988C1230.21 72.9988 1232.04 72.8157 1233.77 72.4499C1235.5 72.084 1237.02 71.4809 1238.32 70.6409C1239.63 69.8009 1240.66 68.7034 1241.42 67.3477C1242.18 65.992 1242.57 64.3163 1242.57 62.3203C1242.57 60.8732 1242.35 59.6052 1241.91 58.5157C1241.48 57.4262 1240.85 56.4572 1240.03 55.6089C1239.21 54.7606 1238.23 53.9997 1237.08 53.3262C1235.94 52.6526 1234.64 52.0163 1233.21 51.4175C1232.15 50.9849 1231.21 50.5649 1230.37 50.1575C1229.53 49.7502 1228.82 49.3342 1228.24 48.9102C1227.65 48.4858 1227.2 48.0369 1226.88 47.5628C1226.56 47.0889 1226.4 46.5523 1226.4 45.9535C1226.4 45.4046 1226.55 44.9098 1226.83 44.4692C1227.12 44.0283 1227.52 43.6498 1228.04 43.3338C1228.55 43.0178 1229.19 42.7726 1229.94 42.5978C1230.7 42.4234 1231.53 42.336 1232.45 42.336C1233.12 42.336 1233.83 42.3858 1234.57 42.4855C1235.32 42.5855 1236.07 42.7394 1236.82 42.9471C1237.57 43.1551 1238.3 43.4169 1239.01 43.7332C1239.73 44.0492 1240.38 44.4151 1240.98 44.8308V37.3711C1239.76 36.9052 1238.43 36.56 1236.98 36.3357C1235.53 36.1111 1233.87 35.9988 1232 35.9988C1230.09 35.9988 1228.29 36.2025 1226.58 36.6102C1224.87 37.0175 1223.37 37.6538 1222.08 38.5188C1220.78 39.3837 1219.75 40.4855 1219 41.8243C1218.25 43.1634 1217.87 44.7643 1217.87 46.6271C1217.87 49.0058 1218.56 51.0351 1219.94 52.7148C1221.32 54.3948 1223.42 55.8169 1226.23 56.9812C1227.33 57.4305 1228.36 57.8711 1229.32 58.3037C1230.27 58.736 1231.09 59.1852 1231.79 59.6508C1232.48 60.1166 1233.03 60.6237 1233.43 61.1726C1233.83 61.7215 1234.03 62.3452 1234.03 63.044C1234.03 63.5597 1233.91 64.0378 1233.66 64.4785C1233.41 64.9194 1233.03 65.3018 1232.52 65.6262C1232 65.9505 1231.37 66.2043 1230.61 66.3871C1229.85 66.5702 1228.96 66.6615 1227.94 66.6615C1226.2 66.6615 1224.47 66.3582 1222.77 65.7511C1221.06 65.144 1219.48 64.2332 1218.02 63.0191V71.0028Z" fill="#3178C6"/>
</g>
<line x1="1291.83" y1="20" x2="1291.83" y2="60" stroke="#8A3EFF" stroke-width="3"/>
<g clip-path="url(#clip4_1818_99)">
<path fill-rule="evenodd" clip-rule="evenodd" d="M1374.78 13C1362.92 13 1355.51 18.8912 1352.55 30.6737C1357 24.7825 1362.18 22.5737 1368.11 24.0456C1371.49 24.8852 1373.91 27.3239 1376.58 30.0239C1380.94 34.4206 1385.98 39.5088 1397 39.5088C1408.85 39.5088 1416.26 33.6175 1419.22 21.8368C1414.78 27.7281 1409.59 29.9368 1403.67 28.4632C1400.28 27.6235 1397.87 25.1848 1395.19 22.4866C1390.83 18.0865 1385.79 13 1374.78 13ZM1352.55 39.5088C1340.7 39.5088 1333.29 45.4 1330.33 57.1824C1334.77 51.2912 1339.96 49.0824 1345.88 50.5544C1349.26 51.394 1351.68 53.8327 1354.36 56.5327C1358.71 60.9294 1363.76 66.0175 1374.78 66.0175C1386.63 66.0175 1394.04 60.1281 1397 48.3456C1392.55 54.2368 1387.37 56.4456 1381.44 54.9737C1378.06 54.1323 1375.64 51.6936 1372.97 48.9954C1368.61 44.5987 1363.57 39.5088 1352.55 39.5088Z" fill="#38BDF8"/>
<path fill-rule="evenodd" clip-rule="evenodd" d="M1463.66 35.3405H1455.91V50.2636C1455.91 54.244 1458.53 54.1812 1463.66 53.9321V59.9645C1453.28 61.2082 1449.15 58.348 1449.15 50.2636V35.3405H1443.39V28.8727H1449.15V20.5218L1455.91 18.5308V28.8727H1463.66V35.3405ZM1493.23 28.8727H1499.99V59.9645H1493.23V55.4877C1490.85 58.7817 1487.16 60.7727 1482.28 60.7727C1473.78 60.7727 1466.71 53.6221 1466.71 44.4177C1466.71 35.1541 1473.78 28.0644 1482.28 28.0644C1487.16 28.0644 1490.85 30.0537 1493.23 33.2885V28.8727ZM1483.35 54.3676C1488.98 54.3676 1493.23 50.2009 1493.23 44.4177C1493.23 38.6345 1488.98 34.4695 1483.35 34.4695C1477.72 34.4695 1473.46 38.6362 1473.46 44.4177C1473.46 50.2009 1477.72 54.3676 1483.35 54.3676ZM1511.25 24.2095C1508.87 24.2095 1506.93 22.2202 1506.93 19.9191C1506.94 18.7787 1507.39 17.6869 1508.2 16.8828C1509.01 16.0787 1510.11 15.6278 1511.25 15.6287C1512.39 15.6273 1513.48 16.0781 1514.29 16.8822C1515.1 17.6864 1515.56 18.7784 1515.56 19.9191C1515.56 22.2185 1513.62 24.2095 1511.25 24.2095ZM1507.87 59.9645V28.8727H1514.63V59.9645H1507.87ZM1522.45 59.9645V14.5679H1529.2V59.9627H1522.45V59.9645ZM1573.05 28.8727H1580.19L1570.36 59.9645H1563.73L1557.23 39.009L1550.66 59.9645H1544.03L1534.21 28.8727H1541.34L1547.41 50.3246L1553.97 28.8727H1560.42L1566.92 50.3246L1573.05 28.8727ZM1588.57 24.2095C1586.19 24.2095 1584.25 22.2202 1584.25 19.9191C1584.26 18.7784 1584.71 17.6864 1585.52 16.8822C1586.33 16.0781 1587.43 15.6273 1588.57 15.6287C1589.71 15.6273 1590.8 16.0781 1591.61 16.8822C1592.42 17.6864 1592.88 18.7784 1592.88 19.9191C1592.88 22.2185 1590.95 24.2095 1588.57 24.2095ZM1585.19 59.9645V28.8727H1591.95V59.9645H1585.19ZM1616.22 28.0644C1623.22 28.0644 1628.23 32.7903 1628.23 40.8746V59.9627H1621.47V41.5574C1621.47 36.8316 1618.72 34.3458 1614.47 34.3458C1610.02 34.3458 1606.52 36.957 1606.52 43.2994V59.9645H1599.76V28.8727H1606.52V32.853C1608.59 29.6199 1611.96 28.0644 1616.22 28.0644ZM1660.26 16.437H1667.01V59.9627H1660.26V55.4859C1657.88 58.7817 1654.19 60.771 1649.31 60.771C1640.8 60.771 1633.73 53.6203 1633.73 44.4159C1633.73 35.1523 1640.8 28.0627 1649.31 28.0627C1654.19 28.0627 1657.88 30.0519 1660.26 33.2867V16.437ZM1650.37 54.3676C1656 54.3676 1660.26 50.2009 1660.26 44.4177C1660.26 38.6345 1656 34.4695 1650.37 34.4695C1644.74 34.4695 1640.49 38.6362 1640.49 44.4177C1640.49 50.2009 1644.74 54.3676 1650.37 54.3676ZM1689.66 60.7727C1680.21 60.7727 1673.14 53.6221 1673.14 44.4177C1673.14 35.1541 1680.21 28.0644 1689.66 28.0644C1695.79 28.0644 1701.11 31.2347 1703.61 36.086L1697.79 39.4445C1696.41 36.5215 1693.35 34.6559 1689.6 34.6559C1684.09 34.6559 1679.9 38.8226 1679.9 44.4177C1679.9 50.0145 1684.09 54.1812 1689.6 54.1812C1693.35 54.1812 1696.41 52.2529 1697.92 49.3927L1703.73 52.6884C1701.11 57.6007 1695.79 60.7727 1689.66 60.7727ZM1714.87 37.4534C1714.87 43.113 1731.7 39.6918 1731.7 51.1973C1731.7 57.416 1726.25 60.7727 1719.5 60.7727C1713.24 60.7727 1708.74 57.9734 1706.74 53.4967L1712.56 50.1399C1713.55 52.9375 1716.06 54.6167 1719.5 54.6167C1722.5 54.6167 1724.81 53.6221 1724.81 51.1329C1724.81 45.6005 1707.99 48.7098 1707.99 37.5788C1707.99 31.7329 1713.05 28.0644 1719.44 28.0644C1724.57 28.0644 1728.82 30.4282 1731.01 34.5322L1725.32 37.7025C1724.19 35.2777 1722 34.1577 1719.44 34.1577C1717 34.1577 1714.87 35.215 1714.87 37.4534ZM1743.71 37.4534C1743.71 43.113 1760.53 39.6918 1760.53 51.1973C1760.53 57.416 1755.09 60.7727 1748.34 60.7727C1742.08 60.7727 1737.58 57.9734 1735.57 53.4967L1741.39 50.1399C1742.39 52.9375 1744.9 54.6167 1748.34 54.6167C1751.34 54.6167 1753.65 53.6221 1753.65 51.1329C1753.65 45.6005 1736.83 48.7098 1736.83 37.5788C1736.83 31.7329 1741.89 28.0644 1748.28 28.0644C1753.4 28.0644 1757.66 30.4282 1759.85 34.5322L1754.15 37.7025C1753.03 35.2777 1750.84 34.1577 1748.28 34.1577C1745.83 34.1577 1743.71 35.215 1743.71 37.4534Z" fill="white"/>
</g>
<line x1="1803.83" y1="20" x2="1803.83" y2="60" stroke="#8A3EFF" stroke-width="3"/>
<g clip-path="url(#clip5_1818_99)">
<path d="M1866.79 24.6524L1843.91 11.3524C1843.75 11.2591 1843.56 11.2103 1843.38 11.2109C1843.19 11.2116 1843.01 11.2617 1842.85 11.3561C1842.69 11.4504 1842.55 11.5858 1842.46 11.7483C1842.37 11.9109 1842.32 12.0948 1842.33 12.2813V49.2891C1842.33 49.6691 1842.54 50.0069 1842.85 50.1969L1851.4 55.2213C1851.56 55.3137 1851.75 55.3625 1851.93 55.3627C1852.11 55.363 1852.3 55.3148 1852.46 55.2229C1852.62 55.131 1852.75 54.9987 1852.84 54.8391C1852.94 54.6795 1852.99 54.4983 1852.99 54.3135V30.1624C1852.99 30.0889 1853.01 30.0169 1853.05 29.9537C1853.08 29.8904 1853.14 29.8381 1853.2 29.8018C1853.27 29.7655 1853.34 29.7466 1853.41 29.7469C1853.48 29.7472 1853.56 29.7667 1853.62 29.8035L1866.82 37.3613C1867.46 37.7287 1868.19 37.9201 1868.93 37.9164C1869.67 37.9127 1870.4 37.714 1871.04 37.3402L1883.92 29.8035C1883.98 29.7667 1884.05 29.7472 1884.12 29.7469C1884.2 29.7466 1884.27 29.7655 1884.33 29.8018C1884.4 29.8381 1884.45 29.8904 1884.49 29.9537C1884.53 30.0169 1884.55 30.0889 1884.55 30.1624V41.9846C1884.55 42.3454 1884.45 42.6998 1884.28 43.0139C1884.1 43.328 1883.84 43.5915 1883.54 43.7791L1870.28 51.928C1870.12 52.0227 1869.99 52.1561 1869.9 52.3152C1869.82 52.4742 1869.77 52.6536 1869.77 52.8358V64.7424C1869.77 65.1224 1869.96 65.4602 1870.26 65.6502L1887.63 76.628C1888.29 77.0454 1889.06 77.2703 1889.84 77.2778C1890.62 77.2853 1891.39 77.0749 1892.06 76.6702L1914.15 63.5813C1914.78 63.2058 1915.3 62.6712 1915.67 62.0305C1916.03 61.3898 1916.22 60.6654 1916.22 59.9291V37.108C1916.22 36.9201 1916.17 36.7353 1916.07 36.5727C1915.98 36.4101 1915.84 36.2756 1915.68 36.1831C1915.52 36.0906 1915.33 36.0434 1915.14 36.0464C1914.95 36.0494 1914.77 36.1025 1914.61 36.2002L1907.62 40.4224C1907 40.795 1906.49 41.3208 1906.13 41.9492C1905.77 42.5777 1905.58 43.2878 1905.58 44.0113V55.4746C1905.57 55.6588 1905.52 55.8396 1905.43 55.9988C1905.34 56.1581 1905.21 56.2903 1905.05 56.3824L1891.98 64.088C1891.33 64.4712 1890.58 64.6715 1889.82 64.6678C1889.07 64.6641 1888.32 64.4565 1887.67 64.0669L1880.64 59.8446C1880.49 59.7525 1880.37 59.6242 1880.28 59.4713C1880.19 59.3184 1880.14 59.1459 1880.14 58.9695C1880.13 58.7931 1880.17 58.6185 1880.26 58.4615C1880.34 58.3046 1880.45 58.1705 1880.6 58.0713L1893.31 49.6902C1893.89 49.3057 1894.37 48.7824 1894.7 48.167C1895.04 47.5517 1895.21 46.8636 1895.21 46.1646V12.2813C1895.21 12.0966 1895.16 11.9153 1895.07 11.7558C1894.97 11.5962 1894.84 11.4638 1894.68 11.3719C1894.52 11.28 1894.34 11.2318 1894.15 11.2321C1893.97 11.2324 1893.79 11.2811 1893.63 11.3735L1871.04 24.6524C1870.39 25.0269 1869.66 25.2242 1868.92 25.2242C1868.17 25.2242 1867.44 25.0269 1866.79 24.6524Z" fill="#007FFF"/>
<path d="M1916.22 13.3153V20.5353C1916.22 21.2529 1916.04 21.9589 1915.69 22.5869C1915.34 23.2148 1914.84 23.7439 1914.23 24.1242L1907.26 28.452C1907.1 28.5497 1906.92 28.6028 1906.73 28.6058C1906.54 28.6088 1906.36 28.5616 1906.2 28.4691C1906.03 28.3766 1905.9 28.2421 1905.8 28.0795C1905.71 27.9169 1905.66 27.7321 1905.66 27.5442V19.9864C1905.66 19.246 1905.86 18.5188 1906.23 17.8778C1906.6 17.2367 1907.13 16.7044 1907.77 16.3342L1914.63 12.4075C1914.79 12.3152 1914.97 12.2664 1915.16 12.2661C1915.34 12.2658 1915.52 12.314 1915.69 12.4059C1915.85 12.4978 1915.98 12.6302 1916.07 12.7898C1916.17 12.9493 1916.21 13.1306 1916.22 13.3153Z" fill="#007FFF"/>
<path d="M1948.68 57.9447V19.5225H1958.18L1974.14 41.6891L1967.13 41.6469L1983.14 19.5225H1992.51V57.9447H1982.08V47.3469C1982.08 44.2013 1982.14 41.3091 1982.29 38.6913C1982.44 36.0102 1982.74 33.308 1983.18 30.6058L1984.28 34.0047L1972.37 49.3736H1968.74L1956.87 33.8569L1958.1 30.6058C1958.52 33.2447 1958.82 35.8836 1958.96 38.5225C1959.11 41.1402 1959.18 44.0958 1959.18 47.3469V57.9447H1948.7H1948.68ZM2022.32 58.2825C2018.58 58.2825 2015.27 57.5436 2012.4 56.0869C2009.64 54.7153 2007.31 52.6029 2005.68 49.9858C2004.1 47.3125 2003.28 44.2493 2003.34 41.1402V19.5225H2014.32V40.8236C2014.32 42.428 2014.66 43.8425 2015.35 45.0458C2016.05 46.2491 2017 47.178 2018.2 47.8536C2019.47 48.5212 2020.89 48.8554 2022.32 48.8247C2023.92 48.8247 2025.36 48.508 2026.6 47.8536C2027.87 47.178 2028.86 46.2491 2029.56 45.0458C2030.3 43.8425 2030.66 42.428 2030.66 40.8236V19.5225H2041.32V41.1402C2041.37 44.2337 2040.54 47.2778 2038.93 49.9221C2037.33 52.5665 2035.01 54.7034 2032.24 56.0869C2029.43 57.5436 2026.12 58.2825 2022.32 58.2825ZM2052.74 57.9447V48.8247H2061.59V28.6425H2052.74V19.5225H2081.24V28.6425H2072.44V48.8247H2081.22V57.9447H2052.72H2052.74Z" fill="white"/>
</g>
<line x1="2130.83" y1="20" x2="2130.83" y2="60" stroke="#8A3EFF" stroke-width="3"/>
<g clip-path="url(#clip6_1818_99)">
<mask id="mask0_1818_99" style="mask-type:luminance" maskUnits="userSpaceOnUse" x="2169" y="12" width="123" height="56">
<path d="M2291.58 12H2169.33V68H2291.58V12Z" fill="white"/>
</mask>
<g mask="url(#mask0_1818_99)">
<path d="M2243.94 33.2954L2265.63 58.4472L2287.32 33.2954" stroke="#FCB32C" stroke-width="14"/>
<path d="M2176.91 67.9997V28.563L2199.78 49.283L2223.07 28.563V67.9997" stroke="#FCB32C" stroke-width="18"/>
<path d="M2265.55 57.7463V12.7886" stroke="#FCB32C" stroke-width="18"/>
</g>
</g>
<defs>
<clipPath id="clip0_1818_99">
<rect width="305.846" height="70" fill="white" transform="translate(0 5)"/>
</clipPath>
<clipPath id="clip1_1818_99">
<rect width="335.214" height="65" fill="white" transform="translate(385.846 7.5)"/>
</clipPath>
<clipPath id="clip2_1818_99">
<rect width="289.266" height="58" fill="white" transform="translate(801.061 11)"/>
</clipPath>
<clipPath id="clip3_1818_99">
<rect width="80" height="80" fill="white" transform="translate(1170.33)"/>
</clipPath>
<clipPath id="clip4_1818_99">
<rect width="432" height="54" fill="white" transform="translate(1330.33 13)"/>
</clipPath>
<clipPath id="clip5_1818_99">
<rect width="247" height="76" fill="white" transform="translate(1842.33 2)"/>
</clipPath>
<clipPath id="clip6_1818_99">
<rect width="122.253" height="56" fill="white" transform="translate(2169.33 12)"/>
</clipPath>
</defs>
</svg>
