<svg width="70" height="70" viewBox="0 0 70 70" fill="none" xmlns="http://www.w3.org/2000/svg">
<g clip-path="url(#clip0_1815_55)">
<path d="M2.625 0H67.375C68.8248 0 70 1.17525 70 2.625V67.375C70 68.8248 68.8248 70 67.375 70H2.625C1.17525 70 0 68.8248 0 67.375V2.625C0 1.17525 1.17525 0 2.625 0Z" fill="white"/>
<path d="M2.625 0H67.375C68.8248 0 70 1.17525 70 2.625V67.375C70 68.8248 68.8248 70 67.375 70H2.625C1.17525 70 0 68.8248 0 67.375V2.625C0 1.17525 1.17525 0 2.625 0ZM38.9119 37.24V31.4989H13.9995V37.24H22.8938V62.8024H29.974V37.24H38.9119ZM41.7348 62.1274C42.8766 62.7095 44.2271 63.1462 45.7862 63.4372C47.345 63.7283 48.9882 63.8739 50.7155 63.8739C52.399 63.8739 53.9983 63.7137 55.5132 63.3936C57.0285 63.0735 58.3568 62.5458 59.4987 61.8108C60.6405 61.0758 61.5443 60.1155 62.2103 58.9292C62.8764 57.743 63.2095 56.2768 63.2095 54.5303C63.2095 53.2641 63.0191 52.1546 62.6387 51.2012C62.258 50.2479 61.709 49.4001 60.9918 48.6578C60.2746 47.9155 59.4144 47.2497 58.4118 46.6604C57.4089 46.071 56.2781 45.5143 55.0192 44.9903C54.0971 44.6118 53.27 44.2443 52.538 43.8878C51.8062 43.5314 51.184 43.1674 50.6717 42.7964C50.1593 42.4251 49.7641 42.0323 49.486 41.6174C49.2078 41.2028 49.0687 40.7333 49.0687 40.2093C49.0687 39.729 49.1933 39.2961 49.4421 38.9106C49.6908 38.5248 50.0422 38.1936 50.4961 37.9171C50.9498 37.6406 51.506 37.426 52.1648 37.2731C52.8236 37.1205 53.5554 37.044 54.3607 37.044C54.946 37.044 55.5647 37.0876 56.2159 37.1748C56.8675 37.2623 57.5225 37.397 58.181 37.5787C58.8398 37.7607 59.4804 37.9898 60.1025 38.2666C60.7247 38.5431 61.2993 38.8632 61.8262 39.2269V32.6997C60.7576 32.2921 59.5902 31.99 58.324 31.7937C57.0575 31.5972 55.6048 31.4989 53.9654 31.4989C52.2965 31.4989 50.7155 31.6772 49.2224 32.0339C47.7292 32.3903 46.4157 32.9471 45.2811 33.7039C44.1466 34.4607 43.25 35.4248 42.5912 36.5963C41.9324 37.768 41.6032 39.1688 41.6032 40.7987C41.6032 42.8801 42.207 44.6557 43.4148 46.1254C44.6223 47.5954 46.4558 48.8398 48.9152 49.8586C49.8812 50.2517 50.7815 50.6372 51.6158 51.0157C52.4502 51.394 53.1712 51.7871 53.7786 52.1944C54.3862 52.602 54.8655 53.0457 55.2168 53.526C55.5682 54.0064 55.744 54.5521 55.744 55.1635C55.744 55.6147 55.6341 56.0331 55.4144 56.4187C55.195 56.8045 54.862 57.1391 54.4156 57.4229C53.9689 57.7067 53.4127 57.9288 52.7466 58.0887C52.0805 58.2489 51.3011 58.3288 50.4081 58.3288C48.8858 58.3288 47.3782 58.0634 45.885 57.5322C44.3918 57.001 43.0085 56.2041 41.7348 55.1417V62.1274Z" fill="#3178C6"/>
</g>
<defs>
<clipPath id="clip0_1815_55">
<rect width="70" height="70" fill="white"/>
</clipPath>
</defs>
</svg>
