<svg width="306" height="70" viewBox="0 0 306 70" fill="none" xmlns="http://www.w3.org/2000/svg">
<g clip-path="url(#clip0_1814_44)">
<path d="M152.579 17.4998C140.689 17.4998 132.117 25.2537 132.117 36.8844C132.117 48.5152 141.766 56.269 153.656 56.269C160.839 56.269 167.171 53.426 171.091 48.6337L162.853 43.8737C160.677 46.2537 157.371 47.6429 153.656 47.6429C148.497 47.6429 144.114 44.9506 142.488 40.6429H172.663C172.9 39.4367 173.04 38.1875 173.04 36.8737C173.04 25.2537 164.468 17.4998 152.579 17.4998ZM142.391 33.1152C143.737 28.8183 147.42 26.1152 152.568 26.1152C157.726 26.1152 161.409 28.8183 162.745 33.1152H142.391ZM268.542 17.4998C256.653 17.4998 248.08 25.2537 248.08 36.8844C248.08 48.5152 257.729 56.269 269.619 56.269C276.802 56.269 283.134 53.426 287.054 48.6337L278.816 43.8737C276.64 46.2537 273.334 47.6429 269.619 47.6429C264.46 47.6429 260.077 44.9506 258.451 40.6429H288.626C288.863 39.4367 289.003 38.1875 289.003 36.8737C289.003 25.2537 280.431 17.4998 268.542 17.4998ZM258.365 33.1152C259.711 28.8183 263.394 26.1152 268.542 26.1152C273.7 26.1152 277.383 28.8183 278.719 33.1152H258.365ZM216.333 36.8844C216.333 43.346 220.554 47.6537 227.102 47.6537C231.539 47.6537 234.866 45.6398 236.579 42.3552L244.849 47.126C241.425 52.8337 235.006 56.269 227.102 56.269C215.202 56.269 206.64 48.5152 206.64 36.8844C206.64 25.2537 215.213 17.4998 227.102 17.4998C235.006 17.4998 241.414 20.9352 244.849 26.6429L236.579 31.4137C234.866 28.129 231.539 26.1152 227.102 26.1152C220.565 26.1152 216.333 30.4229 216.333 36.8844ZM305.157 5.65366V55.1921H295.465V5.65366H305.157ZM40.4818 0.269043L80.2741 69.1921H0.689453L40.4818 0.269043ZM139.968 5.65366L110.126 57.346L80.2848 5.65366H91.4741L110.126 37.9614L128.779 5.65366H139.968ZM203.409 18.5767V29.0121C202.333 28.6998 201.191 28.4844 199.963 28.4844C193.706 28.4844 189.194 32.7921 189.194 39.2537V55.1921H179.502V18.5767H189.194V28.4844C189.194 23.0137 195.559 18.5767 203.409 18.5767Z" fill="white"/>
</g>
<defs>
<clipPath id="clip0_1814_44">
<rect width="305.846" height="70" fill="white"/>
</clipPath>
</defs>
</svg>
